<svg viewBox="0 0 24 24" fill="currentColor"><path fill-rule="evenodd" clip-rule="evenodd" d="M21.428 3.286c-.076-.444-.213-.774-.42-.96-.209-.187-.553-.289-1.004-.318-3.34-.211-12.509 3.587-15.173 6.535-3.024 3.348-3.198 8.771.022 11.66 3.22 2.89 8.615 2.151 11.64-1.196 2.664-2.95 5.497-12.435 4.935-15.721Zm-4.767.78c-.848.243-1.772.556-2.723.924a37.265 37.265 0 0 0-4.81 2.254c-1.48.839-2.591 1.649-3.184 2.305-2.322 2.57-2.543 6.418-.774 8.788-.122-1.067.243-2.256.833-3.414.761-1.495 1.989-3.124 3.485-4.732 1.998-2.148 4.523-4.311 7.173-6.125ZM6.54 19.605c2.552 1.613 6.474 1.014 8.84-1.604.592-.655 1.284-1.841 1.966-3.395a36.96 36.96 0 0 0 1.747-5c.262-.963.475-1.893.628-2.745-1.454 2.7-3.214 5.265-5.06 7.371-1.402 1.6-2.87 2.954-4.314 3.903-1.262.83-2.56 1.385-3.807 1.47ZM19.452 4.053C16.215 6 12.998 8.62 10.586 11.213c-1.443 1.55-2.571 3.064-3.246 4.39-.532 1.044-.732 1.872-.687 2.484.838-.106 1.806-.506 2.87-1.205 1.297-.853 2.667-2.106 4.01-3.639 2.242-2.557 4.362-5.837 5.919-9.19Z"/></svg>