<svg viewBox="0 0 24 24" fill="currentColor"><path fill-rule="evenodd" clip-rule="evenodd" d="M21 3.45a4.547 4.547 0 0 0-.035-.537 2.345 2.345 0 0 0-.055-.288c-.05-.19-.12-.33-.215-.416-.1-.09-.256-.148-.464-.18a2.48 2.48 0 0 0-.262-.025 4.477 4.477 0 0 0-.488.007c-3.307.211-11.8 3.452-14.252 6.187-2.892 3.223-3.058 8.447.02 11.23 4.718 4.264 8.239 2.77 11.129-1.152C18.544 15.337 21.038 6.77 21 3.45Zm-5.207.925c-.55.176-1.124.373-1.708.59-1.62.6-3.276 1.329-4.687 2.093C7.952 7.84 6.89 8.59 6.345 9.199c-2.16 2.408-2.401 5.986-.84 8.256-.062-.987.281-2.07.814-3.124.729-1.443 1.904-3.013 3.336-4.563 1.729-1.873 3.87-3.756 6.138-5.393Zm-8.881 14.5c1.844 1.477 3.246 1.764 4.32 1.57 1.27-.23 2.577-1.212 3.939-3.06.525-.713 1.14-1.935 1.752-3.48a45.965 45.965 0 0 0 1.918-6.14c-1.25 2.167-2.69 4.206-4.187 5.928-1.341 1.541-2.748 2.848-4.132 3.764-1.192.79-2.422 1.326-3.61 1.418ZM19.136 3.95c-3.06 1.867-6.097 4.364-8.379 6.835-1.378 1.493-2.456 2.949-3.1 4.223-.498.986-.69 1.77-.655 2.35.785-.109 1.693-.49 2.692-1.151 1.237-.82 2.545-2.024 3.828-3.499 2.122-2.439 4.131-5.562 5.614-8.758Z"/></svg>