<svg viewBox="0 0 24 24" fill="currentColor"><path fill-rule="evenodd" clip-rule="evenodd" d="M20.974 3.446a5.757 5.757 0 0 0-.058-.5 2.891 2.891 0 0 0-.08-.355c-.05-.17-.112-.29-.183-.354-.077-.069-.222-.125-.426-.165a3.295 3.295 0 0 0-.297-.043 5.72 5.72 0 0 0-.423-.026C16.68 1.926 9.558 3.38 5.223 8.218c-2.884 3.219-3.05 8.435.022 11.214 4.706 4.258 8.218 2.765 11.102-1.151 3.812-5.177 4.838-12.041 4.627-14.835Zm-4.362.356c-.511.1-1.057.227-1.626.385-2.933.816-6.28 2.392-8.646 5.032-2.151 2.4-2.394 5.968-.844 8.234-.058-.984.283-2.061.813-3.11.728-1.442 1.9-3.01 3.329-4.558 1.94-2.102 4.398-4.219 6.974-5.983Zm-9.764 15.03c1.867 1.514 3.283 1.809 4.364 1.613 1.265-.228 2.569-1.21 3.927-3.053 2.17-2.948 3.395-6.535 3.965-9.51.055-.288.104-.568.147-.839-1.266 2.336-2.744 4.51-4.334 6.34-2.46 2.832-5.277 4.948-8.07 5.449ZM19.106 3.973c-3.056 1.865-6.088 4.36-8.366 6.83-1.375 1.49-2.45 2.943-3.092 4.215-.47.932-.667 1.681-.657 2.25 2.176-.539 4.55-2.286 6.794-4.869 2.03-2.339 3.888-5.288 5.32-8.426Z"/></svg>