<svg viewBox="0 0 64 64"><path d="M38.612 39.88c0 3.589-2.97 6.498-6.633 6.498-3.664 0-6.634-2.91-6.634-6.498 0-1.258.364-2.431.995-3.426a9.757 9.757 0 0 0-3.419-.611c-7.152.09-12.884 4.531-12.884 12.415 0 8.462 9.838 15.323 21.974 15.323 12.135 0 21.973-6.86 21.973-15.323 0-7.823-5.854-12.37-12.884-12.413a9.756 9.756 0 0 0-3.474.623c.625.992.986 2.16.986 3.411Z" fill="#FB923C"/><path d="M41.432 62.032c10.49-8.45 11.395-19.02 2.109-25.992 0 0 9.835 3.243 10.311 11.168.626 10.41-12.42 14.824-12.42 14.824Z" fill="#EA580C"/><path d="M29.83 22.01c2.12 2.118 9.731.24 15.585-5.614C51.269 10.542 53.147 2.93 51.029.812c-2.047-2.047-9.73-.24-15.584 5.614-5.854 5.854-7.733 13.466-5.614 15.584Z" fill="#A3E635"/><path d="M33.658 20.655c6.437-4.752 14.016-10.703 16.998-18.613-.502 9-2.2 13.801-16.998 20.327v-1.713Z" fill="#84CC16"/><path fill-rule="evenodd" clip-rule="evenodd" d="M35.776 20.813c2.676-.864 5.845-2.674 8.614-5.442 2.768-2.769 4.578-5.938 5.442-8.613.433-1.341.612-2.506.587-3.4-.025-.932-.26-1.367-.415-1.521-.129-.13-.545-.363-1.486-.386-.896-.022-2.067.157-3.413.586-2.687.857-5.871 2.65-8.635 5.414-2.769 2.768-4.578 5.937-5.442 8.613-.433 1.34-.612 2.506-.588 3.4.026.932.261 1.367.416 1.52.154.155.588.391 1.52.417.895.024 2.06-.155 3.4-.588Zm9.639-4.417C39.56 22.25 31.949 24.128 29.83 22.01c-2.119-2.118-.24-9.73 5.614-15.584C41.298.572 48.982-1.235 51.029.812c2.118 2.118.24 9.73-5.614 15.584Z" fill="#111827"/><path d="M17.68 16.396c3.74 3.74 8.85 5.858 12.142 6.346a.065.065 0 0 1 .056.066v20.457h4.216V21.693c0-6.001-1.959-10.782-6.444-15.267C21.796.572 14.113-1.235 12.066.812c-2.119 2.118-.24 9.73 5.614 15.584Z" fill="#A3E635"/><path d="M30.66 42.76c1.044-21.495-.458-32.842-12.98-41.442 15.222 6.66 16.864 13.38 15.747 36.83L30.66 42.76Z" fill="#84CC16"/><path fill-rule="evenodd" clip-rule="evenodd" d="M13.09 1.837c-.154.154-.39.589-.415 1.52-.025.895.154 2.06.587 3.4.865 2.676 2.674 5.845 5.443 8.614 3.506 3.506 8.325 5.492 11.33 5.938a1.515 1.515 0 0 1 1.292 1.499v19.008h1.318V21.693c0-5.608-1.8-10.022-6.02-14.242-2.764-2.764-5.948-4.557-8.635-5.414-1.347-.43-2.517-.608-3.413-.586-.941.023-1.357.257-1.486.386ZM12.067.812c2.047-2.047 9.73-.24 15.584 5.614 4.485 4.485 6.444 9.266 6.444 15.267v21.572h-4.216V22.808a.065.065 0 0 0-.056-.066c-3.292-.488-8.402-2.605-12.142-6.346C11.826 10.542 9.947 2.93 12.066.812Z" fill="#111827"/><path fill-rule="evenodd" clip-rule="evenodd" d="M29.125 37.43c-1.625-.945-3.643-2.119-6.503-2.115-7.389.095-13.31 4.687-13.31 12.84C9.313 56.904 19.476 64 32.011 64c12.535 0 22.698-7.094 22.698-15.846 0-8.09-6.048-12.792-13.31-12.836-2.897-.005-4.868 1.157-6.466 2.1-1.089.642-2.005 1.183-2.922 1.183-.876 0-1.792-.533-2.886-1.17Zm7.316.788c1.358-.767 2.88-1.454 4.953-1.45 3.325.02 6.292 1.106 8.41 3.025 2.1 1.903 3.455 4.703 3.455 8.361 0 3.771-2.188 7.335-6.028 10.016-3.836 2.678-9.213 4.38-15.22 4.38-6.008 0-11.385-1.702-15.22-4.38-3.841-2.68-6.029-6.245-6.029-10.016 0-3.7 1.331-6.485 3.408-8.367 2.095-1.9 5.059-2.977 8.462-3.022 2.028-.001 3.572.685 4.958 1.457.231.129.483.275.741.425.45.26.914.53 1.312.732.664.337 1.474.671 2.367.671.91 0 1.723-.329 2.396-.672.409-.208.88-.485 1.33-.75.245-.145.485-.286.705-.41Z" fill="#111827"/><path d="M38.896 39.692c0 3.712-3.068 6.72-6.852 6.72-3.785 0-6.853-3.008-6.853-6.72 0-1.326.392-1.113 1.068-2.154 1.127.418 2.083 1.072 2.932 1.566 1.094.637 2.01.94 2.886.94.917 0 1.833-.364 2.922-1.006.822-.485 1.743-1.14 2.838-1.552.67 1.039 1.059.886 1.059 2.206Z" fill="#FFD15C"/><path d="M37.125 36.398c.451-.204.932-.39 1.451-.544a7.351 7.351 0 0 1 1.033 3.36 7.357 7.357 0 0 1-1.562 4.955 7.596 7.596 0 0 1-4.466 2.748 7.696 7.696 0 0 1-5.172-.758.758.758 0 1 1 .718-1.336 6.177 6.177 0 0 0 4.15.608 6.077 6.077 0 0 0 3.574-2.197 5.842 5.842 0 0 0 1.242-3.935 5.843 5.843 0 0 0-.968-2.901ZM26.162 38.203a5.865 5.865 0 0 1 .812-1.823 11.52 11.52 0 0 0-1.456-.538 7.33 7.33 0 0 0-.252 7.113.759.759 0 0 0 1.353-.688 5.813 5.813 0 0 1-.457-4.064Z" fill="#111827"/></svg>