<svg viewBox="0 0 32 32" fill="none"><path d="M17.53 4.515a2.88 2.88 0 0 0-2.88-2.88H8.922c-.314 0-.615.05-.898.142L6.727.48a1.614 1.614 0 0 0-2.282 0L.483 4.442c-.63.63-.63 1.652 0 2.282l1.43 1.43A4.67 4.67 0 0 0 3 13.047l5.528 5.528a2.042 2.042 0 0 0 3.484-1.512 2.042 2.042 0 0 0 2.806-2.27 2.04 2.04 0 0 0 2.395-2.394 2.042 2.042 0 0 0 1.834-3.448l-1.517-1.517v-2.92Z" fill="#B4785B"/><path d="M5.146 14.707c-.268-5.238 2.373-9.4 6.793-12.769l-3.972.034L5.46.18.223 5.418l2.059 2.619c-.763 2.493-.138 3.954 2.864 6.67Z" fill="#A1664A"/><path fill-rule="evenodd" clip-rule="evenodd" d="m16.652 14.235.002-.002a2.032 2.032 0 0 0 .56-1.83 2.04 2.04 0 0 0 1.831-.561l.002-.002.001-.001a2.042 2.042 0 0 0 0-2.888l-1.517-1.517v-2.92a2.88 2.88 0 0 0-2.88-2.88H8.92c-.313 0-.614.05-.897.143L6.727.48a1.614 1.614 0 0 0-2.282 0L.483 4.442c-.63.63-.63 1.652 0 2.282l1.43 1.43A4.67 4.67 0 0 0 3 13.047l2.3 2.3c.01.015.022.029.036.042l3.189 3.19a2.041 2.041 0 0 0 3.386-.81c.075-.227.109-.465.101-.702.744.316 1.636.17 2.243-.436l.001-.001.002-.002a2.032 2.032 0 0 0 .56-1.83 2.04 2.04 0 0 0 1.833-.563Zm-5.73 3.85a1.345 1.345 0 0 1-1.9-.002l-5.529-5.528a3.973 3.973 0 0 1-.926-4.164l.048-.133a.475.475 0 0 0-.11-.497L.974 6.232a.918.918 0 0 1 0-1.298L4.937.973a.918.918 0 0 1 1.298 0l1.393 1.393a.475.475 0 0 0 .484.115l.13-.042c.212-.07.441-.108.68-.108h5.728c1.207 0 2.184.978 2.184 2.184v2.229l-1.717-1.717a.348.348 0 0 0-.492.492l3.928 3.928a1.343 1.343 0 0 1-1.206 2.269l-.098-.02a1.339 1.339 0 0 1-.599-.347l-1.22-1.22a.348.348 0 1 0-.492.493l1.22 1.22a1.343 1.343 0 0 1-1.206 2.269l-.098-.02a1.339 1.339 0 0 1-.598-.347l-1.22-1.22a.348.348 0 1 0-.492.493l1.22 1.22c.524.524.525 1.375 0 1.9-.398.398-.987.495-1.478.285l-.094-.04a1.346 1.346 0 0 1-.331-.243l-1.22-1.22a.348.348 0 1 0-.492.492l.772.773c.525.524.525 1.375.001 1.9Z" fill="#000"/><path d="M27.491 14.475a2.88 2.88 0 0 1 2.88 2.88v5.73c0 .313-.05.614-.142.896l1.297 1.297c.63.63.63 1.653 0 2.283l-3.962 3.962c-.63.63-1.652.63-2.283 0l-1.429-1.43a4.67 4.67 0 0 1-4.893-1.088l-5.528-5.528a2.041 2.041 0 0 1 1.512-3.484 2.042 2.042 0 0 1 2.27-2.806 2.04 2.04 0 0 1 2.394-2.395 2.042 2.042 0 0 1 3.448-1.834l1.517 1.517h2.919Z" fill="#FFD3BD"/><path d="M17.3 26.86c5.237.268 9.4-2.373 12.768-6.793l-.034 3.972 1.79 2.507-5.236 5.237-2.619-2.059c-2.494.763-3.954.138-6.67-2.864Z" fill="#FFC5A8"/><path fill-rule="evenodd" clip-rule="evenodd" d="m17.771 15.354.002-.002a2.033 2.033 0 0 1 1.83-.56 2.04 2.04 0 0 1 .561-1.831l.002-.002.001-.001a2.042 2.042 0 0 1 2.887 0l1.518 1.517h2.919a2.88 2.88 0 0 1 2.88 2.88v5.73c0 .313-.05.614-.142.896l1.297 1.297c.63.63.63 1.653 0 2.283l-3.962 3.962c-.63.63-1.652.63-2.283 0l-1.429-1.43a4.67 4.67 0 0 1-4.893-1.088l-2.3-2.3a.345.345 0 0 1-.042-.036l-3.19-3.19a2.042 2.042 0 0 1 .81-3.386c.227-.074.465-.108.702-.1a2.042 2.042 0 0 1 .436-2.243l.001-.001.002-.002a2.032 2.032 0 0 1 1.83-.56 2.04 2.04 0 0 1 .562-1.832l.001-.001Zm-3.85 5.73a1.345 1.345 0 0 0 .002 1.9l5.528 5.529a3.973 3.973 0 0 0 4.164.926l.133-.048a.475.475 0 0 1 .497.11l1.529 1.53a.918.918 0 0 0 1.298 0l3.961-3.962a.918.918 0 0 0 0-1.298l-1.393-1.393a.475.475 0 0 1-.115-.484l.042-.13c.07-.212.108-.441.108-.68v-5.729a2.184 2.184 0 0 0-2.184-2.183h-2.229l1.717 1.717a.348.348 0 0 1-.492.492l-3.928-3.928a1.343 1.343 0 0 0-2.269 1.206l.02.098c.059.219.175.426.347.598l1.22 1.22a.348.348 0 1 1-.493.493l-1.22-1.22a1.343 1.343 0 0 0-2.269 1.206l.02.097c.059.22.175.427.347.6l1.22 1.22a.348.348 0 1 1-.493.491l-1.22-1.22a1.345 1.345 0 0 0-1.9 0c-.398.398-.495.987-.285 1.478l.04.094c.062.12.143.231.243.331l1.22 1.22a.348.348 0 0 1-.492.492l-.773-.772a1.345 1.345 0 0 0-1.9-.001ZM21.429 3.022c.192 0 .348.156.348.348v3.134a.348.348 0 0 1-.696 0V3.37c0-.192.155-.348.348-.348Zm4.879 2.676a.348.348 0 0 1 0 .492L23.219 9.28a.348.348 0 0 1-.492-.492l3.088-3.089a.348.348 0 0 1 .493 0Zm-1.176 4.857c0-.193.155-.348.348-.348h3.133a.348.348 0 1 1 0 .696H25.48a.348.348 0 0 1-.348-.348Z" fill="#000"/></svg>