<svg viewBox="0 0 32 32" fill="none"><path d="M6 10.89 24.734.454l4.391 17L6 10.891Z" fill="#F9FAFB"/><path d="M14.14 13.25 24.189.86l-7.704 17.812-2.343-5.422Z" fill="#FFD15C"/><path d="m21.422 15.531-3.016-.797-1.703 3.922 4.719-3.125Z" fill="#FBB832"/><path fill-rule="evenodd" clip-rule="evenodd" d="M24.864.028c.098.042.171.127.198.23l4.406 17.11a.344.344 0 0 1-.419.418l-7.293-1.892-5.077 3.224a.344.344 0 0 1-.501-.157l-2.28-5.443-8.153-2.296a.344.344 0 0 1-.074-.631L24.56.043a.344.344 0 0 1 .303-.016ZM14.548 13.29l1.956 4.672 6.874-15.43-8.83 10.758ZM24.642 1.384l-5.81 13.041 9.825 2.549-4.015-15.59Zm-6.093 13.678-1.277 2.865 3.574-2.27-2.297-.595ZM23.312 1.53l-16.58 9.256 7.296 2.055L23.312 1.53ZM15.194 20.446a.344.344 0 0 1 .261.41c-.407 1.828-2.057 4.031-4.185 5.407-1.052.682-2.244 1.173-3.481 1.312a5.866 5.866 0 0 1-.446 1.747C6.67 30.885 5.313 32 3.666 32a.344.344 0 0 1 0-.688c1.307 0 2.451-.884 3.046-2.263.189-.437.32-.92.381-1.434a5.914 5.914 0 0 1-3.17-.917c-.899-.558-1.342-1.285-1.413-2.024-.07-.729.226-1.416.702-1.893.476-.476 1.156-.765 1.873-.651.724.115 1.409.629 1.917 1.601a6.966 6.966 0 0 1 .817 3.148c1.073-.139 2.122-.574 3.078-1.193 2.016-1.304 3.529-3.37 3.887-4.98a.344.344 0 0 1 .41-.26Zm-8.062 6.48a6.27 6.27 0 0 0-.739-2.876c-.437-.836-.962-1.169-1.416-1.241-.462-.073-.93.109-1.279.458-.348.35-.552.84-.503 1.34.047.49.34 1.042 1.09 1.507.926.575 1.89.82 2.847.812ZM8.174 13.885c.167.09.229.3.139.466-.38.7-.758 1.21-1.27 1.602-.508.39-1.123.643-1.938.877a.344.344 0 1 1-.19-.66c.783-.226 1.302-.45 1.71-.763.406-.31.728-.728 1.083-1.383a.344.344 0 0 1 .466-.139Zm2.033 1.189a.344.344 0 0 1 .245.42c-.136.52-.355.96-.704 1.348-.346.384-.804.7-1.396.997a.344.344 0 0 1-.308-.615c.547-.274.924-.544 1.193-.842.265-.295.437-.632.55-1.063a.344.344 0 0 1 .42-.245Zm12.652 3.54c.179.062.273.258.21.437-.194.554-.25 1.004-.203 1.41.046.407.198.795.454 1.22a.344.344 0 1 1-.588.356c-.291-.483-.488-.965-.55-1.497-.06-.533.018-1.09.238-1.716a.344.344 0 0 1 .439-.21Zm2.228.34c.189.017.329.183.313.372-.067.777-.059 1.326.077 1.82.133.486.4.95.903 1.536a.344.344 0 1 1-.521.448c-.543-.631-.876-1.184-1.046-1.803-.168-.613-.167-1.26-.098-2.06a.344.344 0 0 1 .372-.313Z" fill="#111827"/></svg>