<svg xmlns="http://www.w3.org/2000/svg" viewBox="0 0 225 225"><svg xmlns="http://www.w3.org/2000/svg" viewBox="0 0 225 225" fill="none"><g clip-path="url(#clip0_1205_1095)"><path d="M112.5 225c62.132 0 112.5-50.368 112.5-112.5S174.632 0 112.5 0 0 50.368 0 112.5 50.368 225 112.5 225Z" fill="#fff"/><path fill-rule="evenodd" clip-rule="evenodd" d="M112.5 225C50.466 225 0 174.534 0 112.5S50.466 0 112.5 0 225 50.466 225 112.5c.007 62.034-50.466 112.5-112.5 112.5Zm0-206.82c-52.003 0-94.32 42.317-94.32 94.32 0 52.003 42.317 94.32 94.32 94.32 52.009 0 94.32-42.317 94.32-94.32 0-52.003-42.311-94.32-94.32-94.32Z" fill="#111827"/><path fill-rule="evenodd" clip-rule="evenodd" d="M112.5 225C50.466 225 0 174.534 0 112.5S50.466 0 112.5 0 225 50.466 225 112.5c.007 62.034-50.466 112.5-112.5 112.5Zm0-206.82c-52.003 0-94.32 42.317-94.32 94.32 0 52.003 42.317 94.32 94.32 94.32 52.009 0 94.32-42.317 94.32-94.32 0-52.003-42.311-94.32-94.32-94.32Z" fill="#111827"/><path d="M113.173 171.023c32.213 0 58.327-26.114 58.327-58.327 0-32.213-26.114-58.327-58.327-58.327-32.213 0-58.327 26.114-58.327 58.327 0 32.213 26.114 58.327 58.327 58.327Z" fill="#0EA5E9"/><path d="M113.173 141.859c16.106 0 29.163-13.057 29.163-29.164 0-16.106-13.057-29.163-29.163-29.163-16.107 0-29.164 13.057-29.164 29.163 0 16.107 13.057 29.164 29.164 29.164Z" fill="#111827"/><path d="M91.301 105.405c8.053 0 14.581-6.529 14.581-14.581 0-8.053-6.528-14.581-14.58-14.581-8.054 0-14.582 6.528-14.582 14.58 0 8.053 6.528 14.582 14.581 14.582Z" fill="#fff"/></g><defs><clipPath id="SvgjsClipPath1000"><path fill="#fff" d="M0 0h225v225H0z"/></clipPath></defs></svg><style>@media (prefers-color-scheme:light){:root{filter:none}}</style></svg>