<svg viewBox="0 0 24 24" fill="currentColor"><path fill-rule="evenodd" clip-rule="evenodd" d="M20.962 3.42a5.139 5.139 0 0 0-.062-.455 2.881 2.881 0 0 0-.068-.289c-.058-.195-.13-.335-.213-.41-.091-.083-.26-.148-.496-.193a3.316 3.316 0 0 0-.22-.034 5.18 5.18 0 0 0-.388-.031c-2.8-.13-9.934 1.36-14.296 6.23-2.88 3.214-3.044 8.423.021 11.198 4.697 4.251 8.203 2.76 11.08-1.15 3.842-5.22 4.905-12.105 4.642-14.866Zm-4.304.357c-.538.103-1.116.238-1.72.408-2.912.822-6.237 2.413-8.602 5.053-2.145 2.395-2.388 5.952-.847 8.214-.056-.98.285-2.054.812-3.1.727-1.438 1.897-3.004 3.323-4.55 1.954-2.12 4.436-4.254 7.034-6.025Zm-9.814 15.06c1.863 1.51 3.274 1.803 4.351 1.609 1.262-.229 2.562-1.207 3.918-3.049 2.17-2.948 3.41-6.516 3.99-9.473.063-.326.118-.643.166-.949-1.274 2.367-2.767 4.57-4.374 6.42-2.453 2.827-5.264 4.94-8.05 5.442ZM19.072 4.002c-3.049 1.862-6.073 4.352-8.345 6.817-1.373 1.488-2.445 2.94-3.086 4.21-.47.929-.666 1.677-.657 2.244 2.171-.538 4.54-2.282 6.778-4.86 2.027-2.335 3.88-5.28 5.31-8.41Z"/></svg>