<svg viewBox="0 0 24 24" fill="currentColor"><path fill-rule="evenodd" clip-rule="evenodd" d="M12.701 7.214c-.474-1.964-1.54-3.425-2.998-4.3-2.06-1.237-4.734-1.2-7.225-.002a.75.75 0 0 0-.42.585c-.271 2.217.4 4.653 2.163 6.245 1.632 1.473 4.074 2.115 7.248 1.358v7.892c-1.801.086-3.6.627-5.768 1.57a.75.75 0 1 0 .598 1.376c2.287-.995 4-1.459 5.68-1.459 1.683 0 3.41.464 5.725 1.46a.75.75 0 1 0 .592-1.378c-1.997-.859-3.68-1.384-5.327-1.536V12.02c1.758.76 3.8.72 5.497-.096 2.143-1.03 3.685-3.261 3.522-6.506a.75.75 0 0 0-.442-.647c-1.823-.817-3.784-1.19-5.611-.472-1.24.487-2.326 1.439-3.234 2.916Zm.268 3.12v-.217c.994-2.66 2.249-3.926 3.514-4.423 1.18-.464 2.539-.325 4.017.262-.023 2.397-1.202 3.903-2.683 4.615a5.169 5.169 0 0 1-4.848-.236Zm-1.495-.782c-.022-2.75-1.1-4.486-2.543-5.352-1.444-.867-3.41-.957-5.42-.109-.098 1.7.48 3.423 1.715 4.538 1.232 1.112 3.25 1.733 6.248.923Z"/></svg>