<svg viewBox="0 0 32 32" fill="none"><path d="M8.739 28.299.28 31.562l2.478-10.713c.566 4.27 1.268 6.284 3.519 8.34l2.462-.89ZM14.213 26.187c-5.407-2.446-7.797-5.249-9.985-11.692l1.195-5.164c1.06 6.661 8.845 13.67 14.177 14.778l-5.387 2.078Z" fill="#EF4444"/><path d="M20.518 23.628a5.29 5.29 0 0 1-2.198-.437L.958 29.757.597 31.24l19.975-7.558-.054-.054Z" fill="#DC2626"/><path d="M14.27 26.052c-.043-.013-.088-.023-.13-.038-.52-.196-1.03-.42-1.525-.67L5.47 28.045c.271.352.56.688.869 1.007l7.931-3Z" fill="#ECFDF5"/><path fill-rule="evenodd" clip-rule="evenodd" d="M4.176 13.841a.344.344 0 0 1 .423.24c.906 3.282 1.892 5.478 3.373 7.231 1.46 1.728 3.426 3.053 6.348 4.546l6.139-2.323a.344.344 0 1 1 .243.642L.465 31.835a.344.344 0 0 1-.456-.397l.98-4.304a.344.344 0 0 1 .67.153l-.838 3.68 12.636-4.782c-2.66-1.399-4.56-2.714-6.01-4.43-1.573-1.861-2.593-4.167-3.51-7.491a.344.344 0 0 1 .24-.423Z" fill="#111827"/><path d="M16.532 12.866c4.184 4.183 6.259 8.89 4.635 10.515-1.624 1.624-6.332-.45-10.515-4.634-4.183-4.183-6.258-8.89-4.635-10.514 1.624-1.624 6.332.45 10.515 4.633Z" fill="#BAE6FD"/><path fill-rule="evenodd" clip-rule="evenodd" d="M7.808 8.039c-.994-.126-1.51.128-1.755.476-.275.39-.388 1.132-.065 2.308.317 1.15 1.005 2.534 2.022 4.005 1.013 1.466 2.298 2.94 3.72 4.263 1.424 1.324 2.92 2.44 4.331 3.233 1.421.8 2.654 1.218 3.579 1.276.906.057 1.355-.228 1.564-.619.247-.462.29-1.29-.106-2.517a.344.344 0 1 1 .654-.211c.417 1.29.437 2.343.058 3.052-.379.708-1.142 1.048-2.214.98-1.07-.067-2.407-.537-3.872-1.362-1.465-.825-3.006-1.974-4.461-3.329-1.456-1.355-2.774-2.865-3.818-4.375-1.044-1.51-1.776-2.965-2.12-4.213-.343-1.249-.286-2.245.166-2.887.451-.64 1.28-.904 2.404-.762a.344.344 0 1 1-.087.682ZM2.854 20.08a.344.344 0 0 1 .364.321c.14 2.254.374 3.834.892 5.124.512 1.278 1.314 2.295 2.64 3.4a.344.344 0 1 1-.44.527c-1.387-1.155-2.272-2.26-2.838-3.67-.56-1.398-.798-3.071-.94-5.338a.344.344 0 0 1 .322-.364Z" fill="#111827"/><path fill-rule="evenodd" clip-rule="evenodd" d="M26.657 0c.19 0 .343.154.343.344v.759a.344.344 0 0 1-.687 0v-.76c0-.19.154-.343.344-.343Zm-2.053 2.052c0-.19.154-.343.344-.343h.76a.344.344 0 0 1 0 .687h-.76a.344.344 0 0 1-.344-.344Zm2.69 0c0-.19.154-.343.343-.343h.76a.344.344 0 0 1 0 .687h-.76a.344.344 0 0 1-.343-.344Zm-.637.638c.19 0 .343.154.343.343v.76a.344.344 0 0 1-.687 0v-.76c0-.19.154-.343.344-.343Zm-14.48.37a.344.344 0 0 1 .402.272c.457 2.349.537 4.171.255 5.963-.28 1.787-.916 3.522-1.859 5.695a.343.343 0 1 1-.63-.274c.937-2.16 1.544-3.83 1.81-5.528.266-1.691.196-3.43-.25-5.725a.344.344 0 0 1 .272-.403Zm16.631 4.25c.19 0 .344.154.344.344v.76a.344.344 0 1 1-.687 0v-.76c0-.19.154-.344.343-.344Zm-2.22.94a.344.344 0 0 1 .486 0l.537.537a.343.343 0 1 1-.486.486l-.537-.537a.343.343 0 0 1 0-.486Zm4.472 0a.343.343 0 0 1 0 .486l-.537.537a.344.344 0 0 1-.486-.486l.538-.537a.343.343 0 0 1 .485 0Zm-.507 2.22c0-.19.154-.344.344-.344h.76a.344.344 0 1 1 0 .688h-.76a.344.344 0 0 1-.344-.344Zm-1.973-.085a.344.344 0 0 1-.162.458l-11.25 5.364a.344.344 0 0 1-.295-.62l11.25-5.364a.343.343 0 0 1 .457.162Zm-9.802-.082a.343.343 0 0 1-.024.485l-5.332 4.826a.343.343 0 1 1-.461-.51l5.332-4.825a.343.343 0 0 1 .485.024Zm11.26 1.396a.344.344 0 0 1 .485 0l.537.537a.343.343 0 1 1-.485.486l-.538-.537a.344.344 0 0 1 0-.486Zm-1.23.516c.19 0 .344.154.344.344v.76a.344.344 0 0 1-.687 0v-.76c0-.19.154-.344.343-.344Zm-7.514 6.175c-1.538-.063-3.11.127-5.331.562a.344.344 0 1 1-.132-.675c2.24-.438 3.873-.64 5.492-.574 1.618.066 3.203.4 5.349 1.012a.344.344 0 1 1-.189.661c-2.126-.606-3.65-.924-5.189-.986Zm2.985 4.984a.344.344 0 0 1 .407-.266 9.44 9.44 0 0 1 3.149 1.305c.938.613 1.758 1.42 2.183 2.395 1.486.797 2.58 2.861 1.335 5.02a.344.344 0 0 1-.595-.343c.835-1.448.394-2.826-.456-3.63.05.444.017.91-.119 1.394-.208.743-.658 1.214-1.208 1.42a2.024 2.024 0 0 1-1.618-.109c-.487-.247-.892-.692-1.02-1.28-.129-.592.037-1.268.571-1.95.575-.733 1.372-.962 2.144-.847-.387-.565-.944-1.07-1.593-1.495a8.753 8.753 0 0 0-2.914-1.207.344.344 0 0 1-.266-.407Zm5.198 3.937c-.745-.314-1.516-.21-2.028.443-.44.561-.516 1.033-.44 1.38.077.355.326.644.66.814.335.17.728.205 1.064.079.324-.122.633-.409.789-.963a2.868 2.868 0 0 0-.045-1.753Z" fill="#111827"/><path d="M12.369 1.103a.791.791 0 1 1-1.583 0 .791.791 0 0 1 1.583 0ZM17.843 5.533a1.392 1.392 0 1 1-2.784 0 1.392 1.392 0 0 1 2.784 0Z" fill="#111827"/><path d="M17.21 5.533a.76.76 0 1 1-1.519 0 .76.76 0 0 1 1.52 0Z" fill="#F9A8D4"/><path d="M30.786 20.628a1.392 1.392 0 1 1-2.785 0 1.392 1.392 0 0 1 2.785 0Z" fill="#111827"/><path d="M30.153 20.628a.76.76 0 1 1-1.519 0 .76.76 0 0 1 1.52 0Z" fill="#EC4899"/><path d="M20.185 6.415c0-.207.168-.375.375-.375h2.035c.207 0 .375.168.375.375V8.45a.375.375 0 0 1-.375.375H20.56a.375.375 0 0 1-.375-.375V6.415Z" fill="#111827"/><path d="M20.818 6.673h1.519v1.519h-1.519V6.673Z" fill="#A3E635"/><path d="M2.61.478a.375.375 0 0 1 .688 0l.54 1.252a.375.375 0 0 0 .309.225l1.357.126c.327.03.46.437.212.654l-1.023.9a.375.375 0 0 0-.118.364l.3 1.329a.375.375 0 0 1-.558.404l-1.171-.695a.375.375 0 0 0-.383 0l-1.172.695a.375.375 0 0 1-.557-.404l.3-1.33a.375.375 0 0 0-.118-.363l-1.024-.9a.375.375 0 0 1 .213-.654l1.357-.126a.375.375 0 0 0 .31-.225L2.61.478Z" fill="#FFD15C"/><path fill-rule="evenodd" clip-rule="evenodd" d="m2.954 1.258-.31.719a1 1 0 0 1-.825.6l-.779.072.588.516a1 1 0 0 1 .315.97l-.172.764.673-.4a1 1 0 0 1 1.02 0l.673.4-.172-.763a1 1 0 0 1 .316-.97l.587-.517-.779-.072a1 1 0 0 1-.825-.6l-.31-.719Zm.344-.78a.375.375 0 0 0-.688 0L2.071 1.73a.375.375 0 0 1-.31.225L.406 2.08a.375.375 0 0 0-.213.654l1.024.9c.103.09.148.23.118.364l-.3 1.329a.375.375 0 0 0 .557.404l1.172-.695a.375.375 0 0 1 .383 0l1.171.695a.375.375 0 0 0 .557-.404l-.3-1.33a.375.375 0 0 1 .119-.363l1.023-.9a.375.375 0 0 0-.212-.654l-1.357-.126a.375.375 0 0 1-.31-.225L3.298.478Z" fill="#111827"/></svg>